<mxfile host="app.diagrams.net" modified="2023-12-12T11:50:20.124Z" agent="Mozilla/5.0 (Macintosh; Intel Mac OS X 10_15_7) AppleWebKit/537.36 (KHTML, like Gecko) Chrome/120.0.0.0 Safari/537.36" version="21.7.2" etag="lAVsWwI3tkdyA0pvO_pJ" type="github">
  <diagram name="Page-1" id="vS9H4yh5BhslsJzUspFv">
    <mxGraphModel>
      <root>
        <mxCell id="0" />
        <mxCell id="1" parent="0" />
      </root>
    </mxGraphModel>
  </diagram>
</mxfile>
